<svg xmlns="http://www.w3.org/2000/svg" xmlns:xlink="http://www.w3.org/1999/xlink" width="500" zoomAndPan="magnify" viewBox="0 0 375 374.999991" height="500" preserveAspectRatio="xMidYMid meet" version="1.0"><defs><g/></defs><rect x="-37.5" width="450" fill="#ffffff" y="-37.499999" height="449.999989" fill-opacity="1"/><rect x="-37.5" width="450" fill="#ffffff" y="-37.499999" height="449.999989" fill-opacity="1"/><g fill="#000000" fill-opacity="1"><g transform="translate(59.913507, 203.513932)"><g><path d="M 24.609375 -22.203125 C 24.171875 -23.742188 23.359375 -24.945312 22.171875 -25.8125 C 20.992188 -26.6875 19.515625 -27.125 17.734375 -27.125 C 15.222656 -27.125 13.191406 -26.195312 11.640625 -24.34375 C 10.085938 -22.488281 9.3125 -19.851562 9.3125 -16.4375 C 9.3125 -13.007812 10.070312 -10.359375 11.59375 -8.484375 C 13.125 -6.617188 15.191406 -5.6875 17.796875 -5.6875 C 20.097656 -5.6875 21.910156 -6.285156 23.234375 -7.484375 C 24.554688 -8.691406 25.238281 -10.304688 25.28125 -12.328125 L 18.234375 -12.328125 L 18.234375 -17.5625 L 31.953125 -17.5625 L 31.953125 -13.421875 C 31.953125 -10.546875 31.34375 -8.070312 30.125 -6 C 28.914062 -3.925781 27.242188 -2.332031 25.109375 -1.21875 C 22.972656 -0.101562 20.523438 0.453125 17.765625 0.453125 C 14.691406 0.453125 11.988281 -0.226562 9.65625 -1.59375 C 7.332031 -2.957031 5.519531 -4.894531 4.21875 -7.40625 C 2.925781 -9.925781 2.28125 -12.914062 2.28125 -16.375 C 2.28125 -19.914062 2.957031 -22.945312 4.3125 -25.46875 C 5.664062 -27.988281 7.5 -29.914062 9.8125 -31.25 C 12.132812 -32.582031 14.738281 -33.25 17.625 -33.25 C 20.101562 -33.25 22.34375 -32.78125 24.34375 -31.84375 C 26.351562 -30.90625 28 -29.601562 29.28125 -27.9375 C 30.5625 -26.28125 31.351562 -24.367188 31.65625 -22.203125 Z M 24.609375 -22.203125 "/></g></g></g><g fill="#000000" fill-opacity="1"><g transform="translate(94.21814, 203.513932)"><g><path d="M 2.71875 0 L 2.71875 -24.609375 L 9.34375 -24.609375 L 9.34375 -20.3125 L 9.59375 -20.3125 C 10.039062 -21.84375 10.789062 -23 11.84375 -23.78125 C 12.894531 -24.5625 14.113281 -24.953125 15.5 -24.953125 C 16.164062 -24.953125 16.78125 -24.875 17.34375 -24.71875 C 17.914062 -24.5625 18.425781 -24.34375 18.875 -24.0625 L 16.8125 -18.421875 C 16.5 -18.578125 16.148438 -18.710938 15.765625 -18.828125 C 15.390625 -18.941406 14.96875 -19 14.5 -19 C 13.125 -19 11.957031 -18.523438 11 -17.578125 C 10.039062 -16.640625 9.554688 -15.421875 9.546875 -13.921875 L 9.546875 0 Z M 2.71875 0 "/></g></g></g><g fill="#000000" fill-opacity="1"><g transform="translate(113.548526, 203.513932)"><g><path d="M 13.9375 0.484375 C 11.414062 0.484375 9.238281 -0.03125 7.40625 -1.0625 C 5.582031 -2.09375 4.179688 -3.554688 3.203125 -5.453125 C 2.222656 -7.347656 1.734375 -9.59375 1.734375 -12.1875 C 1.734375 -14.71875 2.222656 -16.9375 3.203125 -18.84375 C 4.179688 -20.757812 5.566406 -22.25 7.359375 -23.3125 C 9.148438 -24.382812 11.253906 -24.921875 13.671875 -24.921875 C 15.835938 -24.921875 17.789062 -24.460938 19.53125 -23.546875 C 21.28125 -22.628906 22.664062 -21.242188 23.6875 -19.390625 C 24.71875 -17.535156 25.234375 -15.21875 25.234375 -12.4375 L 25.234375 -10.5625 L 8.46875 -10.5625 L 8.46875 -10.546875 C 8.46875 -8.703125 8.96875 -7.25 9.96875 -6.1875 C 10.976562 -5.132812 12.335938 -4.609375 14.046875 -4.609375 C 15.191406 -4.609375 16.179688 -4.847656 17.015625 -5.328125 C 17.847656 -5.816406 18.4375 -6.53125 18.78125 -7.46875 L 25.078125 -7.046875 C 24.597656 -4.765625 23.378906 -2.9375 21.421875 -1.5625 C 19.472656 -0.195312 16.976562 0.484375 13.9375 0.484375 Z M 8.46875 -14.78125 L 18.8125 -14.78125 C 18.800781 -16.25 18.328125 -17.457031 17.390625 -18.40625 C 16.460938 -19.351562 15.257812 -19.828125 13.78125 -19.828125 C 12.257812 -19.828125 11.015625 -19.335938 10.046875 -18.359375 C 9.078125 -17.378906 8.550781 -16.1875 8.46875 -14.78125 Z M 8.46875 -14.78125 "/></g></g></g><g fill="#000000" fill-opacity="1"><g transform="translate(140.502167, 203.513932)"><g><path d="M 13.9375 0.484375 C 11.414062 0.484375 9.238281 -0.03125 7.40625 -1.0625 C 5.582031 -2.09375 4.179688 -3.554688 3.203125 -5.453125 C 2.222656 -7.347656 1.734375 -9.59375 1.734375 -12.1875 C 1.734375 -14.71875 2.222656 -16.9375 3.203125 -18.84375 C 4.179688 -20.757812 5.566406 -22.25 7.359375 -23.3125 C 9.148438 -24.382812 11.253906 -24.921875 13.671875 -24.921875 C 15.835938 -24.921875 17.789062 -24.460938 19.53125 -23.546875 C 21.28125 -22.628906 22.664062 -21.242188 23.6875 -19.390625 C 24.71875 -17.535156 25.234375 -15.21875 25.234375 -12.4375 L 25.234375 -10.5625 L 8.46875 -10.5625 L 8.46875 -10.546875 C 8.46875 -8.703125 8.96875 -7.25 9.96875 -6.1875 C 10.976562 -5.132812 12.335938 -4.609375 14.046875 -4.609375 C 15.191406 -4.609375 16.179688 -4.847656 17.015625 -5.328125 C 17.847656 -5.816406 18.4375 -6.53125 18.78125 -7.46875 L 25.078125 -7.046875 C 24.597656 -4.765625 23.378906 -2.9375 21.421875 -1.5625 C 19.472656 -0.195312 16.976562 0.484375 13.9375 0.484375 Z M 8.46875 -14.78125 L 18.8125 -14.78125 C 18.800781 -16.25 18.328125 -17.457031 17.390625 -18.40625 C 16.460938 -19.351562 15.257812 -19.828125 13.78125 -19.828125 C 12.257812 -19.828125 11.015625 -19.335938 10.046875 -18.359375 C 9.078125 -17.378906 8.550781 -16.1875 8.46875 -14.78125 Z M 8.46875 -14.78125 "/></g></g></g><g fill="#000000" fill-opacity="1"><g transform="translate(167.455808, 203.513932)"><g><path d="M 9.546875 -14.21875 L 9.546875 0 L 2.71875 0 L 2.71875 -24.609375 L 9.234375 -24.609375 L 9.234375 -20.265625 L 9.515625 -20.265625 C 10.066406 -21.691406 10.976562 -22.820312 12.25 -23.65625 C 13.53125 -24.5 15.085938 -24.921875 16.921875 -24.921875 C 19.484375 -24.921875 21.535156 -24.09375 23.078125 -22.4375 C 24.628906 -20.789062 25.40625 -18.535156 25.40625 -15.671875 L 25.40625 0 L 18.578125 0 L 18.578125 -14.453125 C 18.585938 -15.953125 18.203125 -17.125 17.421875 -17.96875 C 16.648438 -18.820312 15.578125 -19.25 14.203125 -19.25 C 12.828125 -19.25 11.707031 -18.804688 10.84375 -17.921875 C 9.988281 -17.046875 9.554688 -15.8125 9.546875 -14.21875 Z M 9.546875 -14.21875 "/></g></g></g><g fill="#000000" fill-opacity="1"><g transform="translate(195.498482, 203.513932)"><g><path d="M 13.9375 0.484375 C 11.414062 0.484375 9.238281 -0.03125 7.40625 -1.0625 C 5.582031 -2.09375 4.179688 -3.554688 3.203125 -5.453125 C 2.222656 -7.347656 1.734375 -9.59375 1.734375 -12.1875 C 1.734375 -14.71875 2.222656 -16.9375 3.203125 -18.84375 C 4.179688 -20.757812 5.566406 -22.25 7.359375 -23.3125 C 9.148438 -24.382812 11.253906 -24.921875 13.671875 -24.921875 C 15.835938 -24.921875 17.789062 -24.460938 19.53125 -23.546875 C 21.28125 -22.628906 22.664062 -21.242188 23.6875 -19.390625 C 24.71875 -17.535156 25.234375 -15.21875 25.234375 -12.4375 L 25.234375 -10.5625 L 8.46875 -10.5625 L 8.46875 -10.546875 C 8.46875 -8.703125 8.96875 -7.25 9.96875 -6.1875 C 10.976562 -5.132812 12.335938 -4.609375 14.046875 -4.609375 C 15.191406 -4.609375 16.179688 -4.847656 17.015625 -5.328125 C 17.847656 -5.816406 18.4375 -6.53125 18.78125 -7.46875 L 25.078125 -7.046875 C 24.597656 -4.765625 23.378906 -2.9375 21.421875 -1.5625 C 19.472656 -0.195312 16.976562 0.484375 13.9375 0.484375 Z M 8.46875 -14.78125 L 18.8125 -14.78125 C 18.800781 -16.25 18.328125 -17.457031 17.390625 -18.40625 C 16.460938 -19.351562 15.257812 -19.828125 13.78125 -19.828125 C 12.257812 -19.828125 11.015625 -19.335938 10.046875 -18.359375 C 9.078125 -17.378906 8.550781 -16.1875 8.46875 -14.78125 Z M 8.46875 -14.78125 "/></g></g></g><g fill="#000000" fill-opacity="1"><g transform="translate(222.452115, 203.513932)"><g><path d="M 2.71875 0 L 2.71875 -24.609375 L 9.34375 -24.609375 L 9.34375 -20.3125 L 9.59375 -20.3125 C 10.039062 -21.84375 10.789062 -23 11.84375 -23.78125 C 12.894531 -24.5625 14.113281 -24.953125 15.5 -24.953125 C 16.164062 -24.953125 16.78125 -24.875 17.34375 -24.71875 C 17.914062 -24.5625 18.425781 -24.34375 18.875 -24.0625 L 16.8125 -18.421875 C 16.5 -18.578125 16.148438 -18.710938 15.765625 -18.828125 C 15.390625 -18.941406 14.96875 -19 14.5 -19 C 13.125 -19 11.957031 -18.523438 11 -17.578125 C 10.039062 -16.640625 9.554688 -15.421875 9.546875 -13.921875 L 9.546875 0 Z M 2.71875 0 "/></g></g></g><g fill="#000000" fill-opacity="1"><g transform="translate(241.782501, 203.513932)"><g><path d="M 2.71875 0 L 2.71875 -24.609375 L 9.546875 -24.609375 L 9.546875 0 Z M 6.140625 -27.78125 C 5.140625 -27.78125 4.273438 -28.117188 3.546875 -28.796875 C 2.828125 -29.472656 2.46875 -30.285156 2.46875 -31.234375 C 2.46875 -32.179688 2.828125 -32.992188 3.546875 -33.671875 C 4.273438 -34.347656 5.140625 -34.6875 6.140625 -34.6875 C 7.160156 -34.6875 8.03125 -34.347656 8.75 -33.671875 C 9.476562 -32.992188 9.84375 -32.179688 9.84375 -31.234375 C 9.84375 -30.285156 9.476562 -29.472656 8.75 -28.796875 C 8.03125 -28.117188 7.160156 -27.78125 6.140625 -27.78125 Z M 6.140625 -27.78125 "/></g></g></g><g fill="#000000" fill-opacity="1"><g transform="translate(254.050172, 203.513932)"><g><path d="M 15.8125 -24.609375 L 15.8125 -19.484375 L 11.1875 -19.484375 L 11.1875 -7.5625 C 11.1875 -6.625 11.398438 -5.988281 11.828125 -5.65625 C 12.253906 -5.320312 12.804688 -5.15625 13.484375 -5.15625 C 13.804688 -5.15625 14.125 -5.179688 14.4375 -5.234375 C 14.757812 -5.296875 15.007812 -5.34375 15.1875 -5.375 L 16.265625 -0.296875 C 15.921875 -0.191406 15.4375 -0.0703125 14.8125 0.0625 C 14.195312 0.207031 13.445312 0.300781 12.5625 0.34375 C 10.082031 0.445312 8.09375 -0.0859375 6.59375 -1.265625 C 5.09375 -2.453125 4.347656 -4.25 4.359375 -6.65625 L 4.359375 -19.484375 L 1 -19.484375 L 1 -24.609375 L 4.359375 -24.609375 L 4.359375 -30.5 L 11.1875 -30.5 L 11.1875 -24.609375 Z M 15.8125 -24.609375 "/></g></g></g><g fill="#000000" fill-opacity="1"><g transform="translate(271.57085, 203.513932)"><g><path d="M 6.703125 9.578125 C 5.722656 9.578125 4.890625 9.492188 4.203125 9.328125 C 3.515625 9.160156 2.976562 8.992188 2.59375 8.828125 L 4.140625 3.546875 C 5.335938 3.898438 6.347656 3.992188 7.171875 3.828125 C 8.003906 3.660156 8.660156 3.015625 9.140625 1.890625 L 9.59375 0.703125 L 0.765625 -24.609375 L 7.953125 -24.609375 L 13.046875 -6.53125 L 13.296875 -6.53125 L 18.4375 -24.609375 L 25.65625 -24.609375 L 16.046875 2.8125 C 15.359375 4.78125 14.25 6.398438 12.71875 7.671875 C 11.195312 8.941406 9.191406 9.578125 6.703125 9.578125 Z M 6.703125 9.578125 "/></g></g></g></svg>