<svg xmlns="http://www.w3.org/2000/svg" xmlns:xlink="http://www.w3.org/1999/xlink" width="500" zoomAndPan="magnify" viewBox="0 0 375 374.999991" height="500" preserveAspectRatio="xMidYMid meet" version="1.0"><defs><g/></defs><rect x="-37.5" width="450" fill="#ffffff" y="-37.499999" height="449.999989" fill-opacity="1"/><rect x="-37.5" width="450" fill="#ffffff" y="-37.499999" height="449.999989" fill-opacity="1"/><g fill="#000000" fill-opacity="1"><g transform="translate(33.954764, 198.744421)"><g><path d="M 29.34375 -33.21875 C 29.164062 -35.050781 28.378906 -36.472656 26.984375 -37.484375 C 25.597656 -38.503906 23.726562 -39.015625 21.375 -39.015625 C 18.957031 -39.015625 17.101562 -38.519531 15.8125 -37.53125 C 14.53125 -36.550781 13.890625 -35.3125 13.890625 -33.8125 C 13.859375 -32.132812 14.570312 -30.867188 16.03125 -30.015625 C 17.5 -29.160156 19.242188 -28.5 21.265625 -28.03125 L 25.453125 -27.015625 C 28.148438 -26.410156 30.550781 -25.53125 32.65625 -24.375 C 34.757812 -23.226562 36.414062 -21.75 37.625 -19.9375 C 38.832031 -18.125 39.4375 -15.914062 39.4375 -13.3125 C 39.414062 -9.050781 37.816406 -5.65625 34.640625 -3.125 C 31.460938 -0.601562 27.023438 0.65625 21.328125 0.65625 C 15.671875 0.65625 11.15625 -0.628906 7.78125 -3.203125 C 4.414062 -5.785156 2.671875 -9.597656 2.546875 -14.640625 L 12.09375 -14.640625 C 12.257812 -12.296875 13.179688 -10.535156 14.859375 -9.359375 C 16.535156 -8.191406 18.65625 -7.609375 21.21875 -7.609375 C 23.71875 -7.609375 25.710938 -8.140625 27.203125 -9.203125 C 28.703125 -10.265625 29.460938 -11.644531 29.484375 -13.34375 C 29.460938 -14.914062 28.769531 -16.128906 27.40625 -16.984375 C 26.039062 -17.835938 24.09375 -18.566406 21.5625 -19.171875 L 16.484375 -20.4375 C 12.554688 -21.382812 9.453125 -22.878906 7.171875 -24.921875 C 4.890625 -26.972656 3.757812 -29.710938 3.78125 -33.140625 C 3.757812 -35.960938 4.507812 -38.429688 6.03125 -40.546875 C 7.5625 -42.671875 9.660156 -44.320312 12.328125 -45.5 C 15.003906 -46.675781 18.046875 -47.265625 21.453125 -47.265625 C 24.910156 -47.265625 27.929688 -46.671875 30.515625 -45.484375 C 33.109375 -44.304688 35.125 -42.660156 36.5625 -40.546875 C 38 -38.429688 38.742188 -35.988281 38.796875 -33.21875 Z M 29.34375 -33.21875 "/></g></g></g><g fill="#000000" fill-opacity="1"><g transform="translate(75.93042, 198.744421)"><g><path d="M 19.671875 0.6875 C 16.128906 0.6875 13.070312 -0.0664062 10.5 -1.578125 C 7.925781 -3.085938 5.941406 -5.195312 4.546875 -7.90625 C 3.148438 -10.613281 2.453125 -13.757812 2.453125 -17.34375 C 2.453125 -20.957031 3.148438 -24.117188 4.546875 -26.828125 C 5.941406 -29.535156 7.925781 -31.644531 10.5 -33.15625 C 13.070312 -34.664062 16.128906 -35.421875 19.671875 -35.421875 C 23.203125 -35.421875 26.253906 -34.664062 28.828125 -33.15625 C 31.398438 -31.644531 33.382812 -29.535156 34.78125 -26.828125 C 36.175781 -24.117188 36.875 -20.957031 36.875 -17.34375 C 36.875 -13.757812 36.175781 -10.613281 34.78125 -7.90625 C 33.382812 -5.195312 31.398438 -3.085938 28.828125 -1.578125 C 26.253906 -0.0664062 23.203125 0.6875 19.671875 0.6875 Z M 19.71875 -6.828125 C 22.113281 -6.828125 23.925781 -7.828125 25.15625 -9.828125 C 26.394531 -11.835938 27.015625 -14.367188 27.015625 -17.421875 C 27.015625 -20.460938 26.394531 -22.988281 25.15625 -25 C 23.925781 -27.019531 22.113281 -28.03125 19.71875 -28.03125 C 17.269531 -28.03125 15.421875 -27.019531 14.171875 -25 C 12.929688 -22.988281 12.3125 -20.460938 12.3125 -17.421875 C 12.3125 -14.367188 12.929688 -11.835938 14.171875 -9.828125 C 15.421875 -7.828125 17.269531 -6.828125 19.71875 -6.828125 Z M 19.71875 -6.828125 "/></g></g></g><g fill="#000000" fill-opacity="1"><g transform="translate(115.265523, 198.744421)"><g><path d="M 13.5625 -46.625 L 13.5625 0 L 3.875 0 L 3.875 -46.625 Z M 13.5625 -46.625 "/></g></g></g><g fill="#000000" fill-opacity="1"><g transform="translate(132.702267, 198.744421)"><g><path d="M 36.46875 -34.96875 L 24.25 0 L 13.3125 0 L 1.09375 -34.96875 L 11.34375 -34.96875 L 18.59375 -9.953125 L 18.96875 -9.953125 L 26.203125 -34.96875 Z M 36.46875 -34.96875 "/></g></g></g><g fill="#000000" fill-opacity="1"><g transform="translate(170.261831, 198.744421)"><g><path d="M 3.875 0 L 3.875 -34.96875 L 13.5625 -34.96875 L 13.5625 0 Z M 8.734375 -39.46875 C 7.304688 -39.46875 6.078125 -39.953125 5.046875 -40.921875 C 4.015625 -41.890625 3.5 -43.046875 3.5 -44.390625 C 3.5 -45.742188 4.015625 -46.894531 5.046875 -47.84375 C 6.078125 -48.800781 7.304688 -49.28125 8.734375 -49.28125 C 10.179688 -49.28125 11.421875 -48.800781 12.453125 -47.84375 C 13.484375 -46.894531 14 -45.742188 14 -44.390625 C 14 -43.046875 13.484375 -41.890625 12.453125 -40.921875 C 11.421875 -39.953125 10.179688 -39.46875 8.734375 -39.46875 Z M 8.734375 -39.46875 "/></g></g></g><g fill="#000000" fill-opacity="1"><g transform="translate(187.698574, 198.744421)"><g><path d="M 45.1875 -30.296875 L 35.21875 -30.296875 C 34.84375 -32.867188 33.75 -34.882812 31.9375 -36.34375 C 30.132812 -37.8125 27.878906 -38.546875 25.171875 -38.546875 C 21.566406 -38.546875 18.675781 -37.21875 16.5 -34.5625 C 14.320312 -31.914062 13.234375 -28.164062 13.234375 -23.3125 C 13.234375 -18.332031 14.328125 -14.546875 16.515625 -11.953125 C 18.710938 -9.367188 21.578125 -8.078125 25.109375 -8.078125 C 27.734375 -8.078125 29.957031 -8.765625 31.78125 -10.140625 C 33.601562 -11.515625 34.75 -13.445312 35.21875 -15.9375 L 45.1875 -15.890625 C 44.84375 -13.035156 43.828125 -10.347656 42.140625 -7.828125 C 40.453125 -5.304688 38.160156 -3.265625 35.265625 -1.703125 C 32.378906 -0.140625 28.941406 0.640625 24.953125 0.640625 C 20.796875 0.640625 17.082031 -0.300781 13.8125 -2.1875 C 10.539062 -4.070312 7.957031 -6.796875 6.0625 -10.359375 C 4.175781 -13.921875 3.234375 -18.238281 3.234375 -23.3125 C 3.234375 -28.394531 4.1875 -32.71875 6.09375 -36.28125 C 8.007812 -39.851562 10.609375 -42.578125 13.890625 -44.453125 C 17.171875 -46.328125 20.859375 -47.265625 24.953125 -47.265625 C 28.546875 -47.265625 31.785156 -46.597656 34.671875 -45.265625 C 37.566406 -43.941406 39.9375 -42.015625 41.78125 -39.484375 C 43.625 -36.960938 44.757812 -33.898438 45.1875 -30.296875 Z M 45.1875 -30.296875 "/></g></g></g><g fill="#000000" fill-opacity="1"><g transform="translate(235.911385, 198.744421)"><g><path d="M 19.671875 0.6875 C 16.128906 0.6875 13.070312 -0.0664062 10.5 -1.578125 C 7.925781 -3.085938 5.941406 -5.195312 4.546875 -7.90625 C 3.148438 -10.613281 2.453125 -13.757812 2.453125 -17.34375 C 2.453125 -20.957031 3.148438 -24.117188 4.546875 -26.828125 C 5.941406 -29.535156 7.925781 -31.644531 10.5 -33.15625 C 13.070312 -34.664062 16.128906 -35.421875 19.671875 -35.421875 C 23.203125 -35.421875 26.253906 -34.664062 28.828125 -33.15625 C 31.398438 -31.644531 33.382812 -29.535156 34.78125 -26.828125 C 36.175781 -24.117188 36.875 -20.957031 36.875 -17.34375 C 36.875 -13.757812 36.175781 -10.613281 34.78125 -7.90625 C 33.382812 -5.195312 31.398438 -3.085938 28.828125 -1.578125 C 26.253906 -0.0664062 23.203125 0.6875 19.671875 0.6875 Z M 19.71875 -6.828125 C 22.113281 -6.828125 23.925781 -7.828125 25.15625 -9.828125 C 26.394531 -11.835938 27.015625 -14.367188 27.015625 -17.421875 C 27.015625 -20.460938 26.394531 -22.988281 25.15625 -25 C 23.925781 -27.019531 22.113281 -28.03125 19.71875 -28.03125 C 17.269531 -28.03125 15.421875 -27.019531 14.171875 -25 C 12.929688 -22.988281 12.3125 -20.460938 12.3125 -17.421875 C 12.3125 -14.367188 12.929688 -11.835938 14.171875 -9.828125 C 15.421875 -7.828125 17.269531 -6.828125 19.71875 -6.828125 Z M 19.71875 -6.828125 "/></g></g></g><g fill="#000000" fill-opacity="1"><g transform="translate(275.246489, 198.744421)"><g><path d="M 3.875 0 L 3.875 -34.96875 L 13.265625 -34.96875 L 13.265625 -28.875 L 13.640625 -28.875 C 14.273438 -31.039062 15.335938 -32.679688 16.828125 -33.796875 C 18.328125 -34.910156 20.0625 -35.46875 22.03125 -35.46875 C 22.976562 -35.46875 23.851562 -35.351562 24.65625 -35.125 C 25.457031 -34.894531 26.175781 -34.582031 26.8125 -34.1875 L 23.90625 -26.1875 C 23.445312 -26.40625 22.945312 -26.59375 22.40625 -26.75 C 21.875 -26.914062 21.273438 -27 20.609375 -27 C 18.648438 -27 16.988281 -26.332031 15.625 -25 C 14.269531 -23.664062 13.582031 -21.925781 13.5625 -19.78125 L 13.5625 0 Z M 3.875 0 "/></g></g></g><g fill="#000000" fill-opacity="1"><g transform="translate(302.721874, 198.744421)"><g><path d="M 19.8125 0.6875 C 16.226562 0.6875 13.132812 -0.0390625 10.53125 -1.5 C 7.9375 -2.96875 5.941406 -5.050781 4.546875 -7.75 C 3.148438 -10.445312 2.453125 -13.640625 2.453125 -17.328125 C 2.453125 -20.921875 3.148438 -24.078125 4.546875 -26.796875 C 5.941406 -29.515625 7.910156 -31.628906 10.453125 -33.140625 C 13.003906 -34.660156 15.992188 -35.421875 19.421875 -35.421875 C 22.503906 -35.421875 25.285156 -34.769531 27.765625 -33.46875 C 30.242188 -32.164062 32.210938 -30.195312 33.671875 -27.5625 C 35.128906 -24.925781 35.859375 -21.628906 35.859375 -17.671875 L 35.859375 -15 L 12.046875 -15 L 12.046875 -14.984375 C 12.046875 -12.367188 12.757812 -10.3125 14.1875 -8.8125 C 15.613281 -7.3125 17.539062 -6.5625 19.96875 -6.5625 C 21.59375 -6.5625 22.992188 -6.898438 24.171875 -7.578125 C 25.359375 -8.265625 26.195312 -9.273438 26.6875 -10.609375 L 35.65625 -10.015625 C 34.96875 -6.765625 33.234375 -4.164062 30.453125 -2.21875 C 27.679688 -0.28125 24.132812 0.6875 19.8125 0.6875 Z M 12.046875 -21.015625 L 26.734375 -21.015625 C 26.710938 -23.085938 26.039062 -24.800781 24.71875 -26.15625 C 23.40625 -27.507812 21.691406 -28.1875 19.578125 -28.1875 C 17.421875 -28.1875 15.648438 -27.488281 14.265625 -26.09375 C 12.890625 -24.695312 12.148438 -23.003906 12.046875 -21.015625 Z M 12.046875 -21.015625 "/></g></g></g></svg>