<svg xmlns="http://www.w3.org/2000/svg" xmlns:xlink="http://www.w3.org/1999/xlink" width="500" zoomAndPan="magnify" viewBox="0 0 375 374.999991" height="500" preserveAspectRatio="xMidYMid meet" version="1.0"><defs><g/></defs><rect x="-37.5" width="450" fill="#ffffff" y="-37.499999" height="449.999989" fill-opacity="1"/><rect x="-37.5" width="450" fill="#ffffff" y="-37.499999" height="449.999989" fill-opacity="1"/><g fill="#000000" fill-opacity="1"><g transform="translate(9.740263, 198.374987)"><g><path d="M 15.15625 -17.15625 C 15.0625 -18.101562 14.65625 -18.835938 13.9375 -19.359375 C 13.21875 -19.890625 12.253906 -20.15625 11.046875 -20.15625 C 9.796875 -20.15625 8.835938 -19.898438 8.171875 -19.390625 C 7.503906 -18.878906 7.171875 -18.234375 7.171875 -17.453125 C 7.160156 -16.597656 7.53125 -15.945312 8.28125 -15.5 C 9.039062 -15.0625 9.941406 -14.71875 10.984375 -14.46875 L 13.140625 -13.953125 C 14.535156 -13.640625 15.773438 -13.1875 16.859375 -12.59375 C 17.953125 -12 18.804688 -11.234375 19.421875 -10.296875 C 20.046875 -9.359375 20.359375 -8.21875 20.359375 -6.875 C 20.359375 -4.675781 19.535156 -2.921875 17.890625 -1.609375 C 16.242188 -0.304688 13.953125 0.34375 11.015625 0.34375 C 8.085938 0.34375 5.753906 -0.320312 4.015625 -1.65625 C 2.273438 -2.988281 1.375 -4.957031 1.3125 -7.5625 L 6.25 -7.5625 C 6.332031 -6.351562 6.804688 -5.441406 7.671875 -4.828125 C 8.535156 -4.222656 9.628906 -3.921875 10.953125 -3.921875 C 12.242188 -3.921875 13.273438 -4.195312 14.046875 -4.75 C 14.828125 -5.300781 15.21875 -6.015625 15.21875 -6.890625 C 15.21875 -7.703125 14.863281 -8.328125 14.15625 -8.765625 C 13.445312 -9.203125 12.441406 -9.582031 11.140625 -9.90625 L 8.515625 -10.5625 C 6.484375 -11.039062 4.878906 -11.8125 3.703125 -12.875 C 2.523438 -13.9375 1.941406 -15.351562 1.953125 -17.125 C 1.941406 -18.582031 2.328125 -19.859375 3.109375 -20.953125 C 3.898438 -22.046875 4.984375 -22.894531 6.359375 -23.5 C 7.742188 -24.101562 9.316406 -24.40625 11.078125 -24.40625 C 12.859375 -24.40625 14.414062 -24.097656 15.75 -23.484375 C 17.09375 -22.878906 18.132812 -22.03125 18.875 -20.9375 C 19.625 -19.851562 20.007812 -18.59375 20.03125 -17.15625 Z M 15.15625 -17.15625 "/></g></g></g><g fill="#000000" fill-opacity="1"><g transform="translate(31.410966, 198.374987)"><g><path d="M 4.921875 7.03125 C 4.203125 7.03125 3.585938 6.96875 3.078125 6.84375 C 2.578125 6.726562 2.1875 6.609375 1.90625 6.484375 L 3.03125 2.59375 C 3.914062 2.863281 4.660156 2.9375 5.265625 2.8125 C 5.878906 2.6875 6.363281 2.210938 6.71875 1.390625 L 7.046875 0.515625 L 0.5625 -18.0625 L 5.828125 -18.0625 L 9.578125 -4.796875 L 9.765625 -4.796875 L 13.53125 -18.0625 L 18.828125 -18.0625 L 11.78125 2.0625 C 11.269531 3.507812 10.457031 4.695312 9.34375 5.625 C 8.226562 6.5625 6.753906 7.03125 4.921875 7.03125 Z M 4.921875 7.03125 "/></g></g></g><g fill="#000000" fill-opacity="1"><g transform="translate(50.801777, 198.374987)"><g><path d="M 8.65625 0.296875 C 7.28125 0.296875 6.039062 -0.0546875 4.9375 -0.765625 C 3.832031 -1.472656 2.953125 -2.519531 2.296875 -3.90625 C 1.648438 -5.289062 1.328125 -6.988281 1.328125 -9 C 1.328125 -11.070312 1.660156 -12.796875 2.328125 -14.171875 C 3.003906 -15.546875 3.894531 -16.578125 5 -17.265625 C 6.113281 -17.953125 7.328125 -18.296875 8.640625 -18.296875 C 9.648438 -18.296875 10.492188 -18.125 11.171875 -17.78125 C 11.847656 -17.4375 12.394531 -17.015625 12.8125 -16.515625 C 13.238281 -16.015625 13.5625 -15.519531 13.78125 -15.03125 L 13.9375 -15.03125 L 13.9375 -24.078125 L 18.9375 -24.078125 L 18.9375 0 L 13.984375 0 L 13.984375 -2.890625 L 13.78125 -2.890625 C 13.550781 -2.390625 13.21875 -1.894531 12.78125 -1.40625 C 12.351562 -0.914062 11.800781 -0.507812 11.125 -0.1875 C 10.445312 0.132812 9.625 0.296875 8.65625 0.296875 Z M 10.234375 -3.6875 C 11.441406 -3.6875 12.375 -4.175781 13.03125 -5.15625 C 13.695312 -6.132812 14.03125 -7.425781 14.03125 -9.03125 C 14.03125 -10.644531 13.703125 -11.925781 13.046875 -12.875 C 12.390625 -13.832031 11.453125 -14.3125 10.234375 -14.3125 C 9.003906 -14.3125 8.0625 -13.820312 7.40625 -12.84375 C 6.757812 -11.863281 6.4375 -10.59375 6.4375 -9.03125 C 6.4375 -7.457031 6.757812 -6.171875 7.40625 -5.171875 C 8.0625 -4.179688 9.003906 -3.6875 10.234375 -3.6875 Z M 10.234375 -3.6875 "/></g></g></g><g fill="#000000" fill-opacity="1"><g transform="translate(71.826117, 198.374987)"><g><path d="M 8.65625 0.296875 C 7.28125 0.296875 6.039062 -0.0546875 4.9375 -0.765625 C 3.832031 -1.472656 2.953125 -2.519531 2.296875 -3.90625 C 1.648438 -5.289062 1.328125 -6.988281 1.328125 -9 C 1.328125 -11.070312 1.660156 -12.796875 2.328125 -14.171875 C 3.003906 -15.546875 3.894531 -16.578125 5 -17.265625 C 6.113281 -17.953125 7.328125 -18.296875 8.640625 -18.296875 C 9.648438 -18.296875 10.492188 -18.125 11.171875 -17.78125 C 11.847656 -17.4375 12.394531 -17.015625 12.8125 -16.515625 C 13.238281 -16.015625 13.5625 -15.519531 13.78125 -15.03125 L 13.9375 -15.03125 L 13.9375 -24.078125 L 18.9375 -24.078125 L 18.9375 0 L 13.984375 0 L 13.984375 -2.890625 L 13.78125 -2.890625 C 13.550781 -2.390625 13.21875 -1.894531 12.78125 -1.40625 C 12.351562 -0.914062 11.800781 -0.507812 11.125 -0.1875 C 10.445312 0.132812 9.625 0.296875 8.65625 0.296875 Z M 10.234375 -3.6875 C 11.441406 -3.6875 12.375 -4.175781 13.03125 -5.15625 C 13.695312 -6.132812 14.03125 -7.425781 14.03125 -9.03125 C 14.03125 -10.644531 13.703125 -11.925781 13.046875 -12.875 C 12.390625 -13.832031 11.453125 -14.3125 10.234375 -14.3125 C 9.003906 -14.3125 8.0625 -13.820312 7.40625 -12.84375 C 6.757812 -11.863281 6.4375 -10.59375 6.4375 -9.03125 C 6.4375 -7.457031 6.757812 -6.171875 7.40625 -5.171875 C 8.0625 -4.179688 9.003906 -3.6875 10.234375 -3.6875 Z M 10.234375 -3.6875 "/></g></g></g><g fill="#000000" fill-opacity="1"><g transform="translate(92.850457, 198.374987)"><g><path d="M 7.15625 0.34375 C 5.425781 0.34375 3.992188 -0.101562 2.859375 -1 C 1.722656 -1.90625 1.15625 -3.253906 1.15625 -5.046875 C 1.15625 -6.390625 1.472656 -7.445312 2.109375 -8.21875 C 2.742188 -8.988281 3.578125 -9.550781 4.609375 -9.90625 C 5.640625 -10.257812 6.75 -10.492188 7.9375 -10.609375 C 9.5 -10.765625 10.617188 -10.925781 11.296875 -11.09375 C 11.972656 -11.269531 12.3125 -11.648438 12.3125 -12.234375 L 12.3125 -12.296875 C 12.3125 -13.046875 12.078125 -13.625 11.609375 -14.03125 C 11.140625 -14.4375 10.476562 -14.640625 9.625 -14.640625 C 8.726562 -14.640625 8.007812 -14.441406 7.46875 -14.046875 C 6.9375 -13.660156 6.585938 -13.164062 6.421875 -12.5625 L 1.78125 -12.9375 C 2.125 -14.582031 2.976562 -15.882812 4.34375 -16.84375 C 5.71875 -17.8125 7.488281 -18.296875 9.65625 -18.296875 C 10.988281 -18.296875 12.238281 -18.082031 13.40625 -17.65625 C 14.582031 -17.238281 15.523438 -16.578125 16.234375 -15.671875 C 16.953125 -14.773438 17.3125 -13.613281 17.3125 -12.1875 L 17.3125 0 L 12.5625 0 L 12.5625 -2.5 L 12.421875 -2.5 C 11.984375 -1.664062 11.328125 -0.984375 10.453125 -0.453125 C 9.578125 0.078125 8.476562 0.34375 7.15625 0.34375 Z M 8.578125 -3.109375 C 9.679688 -3.109375 10.582031 -3.425781 11.28125 -4.0625 C 11.988281 -4.707031 12.34375 -5.503906 12.34375 -6.453125 L 12.34375 -8.375 C 12.144531 -8.238281 11.835938 -8.117188 11.421875 -8.015625 C 11.015625 -7.910156 10.578125 -7.820312 10.109375 -7.75 C 9.648438 -7.675781 9.234375 -7.613281 8.859375 -7.5625 C 7.984375 -7.4375 7.273438 -7.1875 6.734375 -6.8125 C 6.203125 -6.445312 5.9375 -5.910156 5.9375 -5.203125 C 5.9375 -4.515625 6.1875 -3.992188 6.6875 -3.640625 C 7.1875 -3.285156 7.816406 -3.109375 8.578125 -3.109375 Z M 8.578125 -3.109375 "/></g></g></g><g fill="#000000" fill-opacity="1"><g transform="translate(112.053241, 198.374987)"><g><path d="M 7 -10.4375 L 7 0 L 2 0 L 2 -18.0625 L 6.765625 -18.0625 L 6.765625 -14.875 L 6.984375 -14.875 C 7.390625 -15.925781 8.0625 -16.757812 9 -17.375 C 9.9375 -17.988281 11.078125 -18.296875 12.421875 -18.296875 C 14.296875 -18.296875 15.800781 -17.6875 16.9375 -16.46875 C 18.070312 -15.257812 18.640625 -13.601562 18.640625 -11.5 L 18.640625 0 L 13.640625 0 L 13.640625 -10.609375 C 13.648438 -11.710938 13.367188 -12.570312 12.796875 -13.1875 C 12.222656 -13.8125 11.429688 -14.125 10.421875 -14.125 C 9.410156 -14.125 8.585938 -13.800781 7.953125 -13.15625 C 7.328125 -12.507812 7.007812 -11.601562 7 -10.4375 Z M 7 -10.4375 "/></g></g></g><g fill="#000000" fill-opacity="1"><g transform="translate(132.63101, 198.374987)"><g><path d="M 17.03125 -12.90625 L 12.4375 -12.625 C 12.3125 -13.207031 11.992188 -13.707031 11.484375 -14.125 C 10.972656 -14.539062 10.285156 -14.75 9.421875 -14.75 C 8.640625 -14.75 7.976562 -14.582031 7.4375 -14.25 C 6.90625 -13.925781 6.644531 -13.492188 6.65625 -12.953125 C 6.644531 -12.523438 6.8125 -12.160156 7.15625 -11.859375 C 7.507812 -11.566406 8.109375 -11.328125 8.953125 -11.140625 L 12.21875 -10.484375 C 15.6875 -9.773438 17.425781 -8.144531 17.4375 -5.59375 C 17.4375 -4.414062 17.085938 -3.378906 16.390625 -2.484375 C 15.703125 -1.585938 14.753906 -0.890625 13.546875 -0.390625 C 12.335938 0.109375 10.953125 0.359375 9.390625 0.359375 C 7.003906 0.359375 5.097656 -0.140625 3.671875 -1.140625 C 2.253906 -2.140625 1.429688 -3.503906 1.203125 -5.234375 L 6.125 -5.484375 C 6.28125 -4.753906 6.640625 -4.195312 7.203125 -3.8125 C 7.773438 -3.4375 8.507812 -3.25 9.40625 -3.25 C 10.28125 -3.25 10.984375 -3.421875 11.515625 -3.765625 C 12.054688 -4.117188 12.332031 -4.5625 12.34375 -5.09375 C 12.320312 -5.988281 11.550781 -6.585938 10.03125 -6.890625 L 6.90625 -7.515625 C 3.40625 -8.210938 1.664062 -9.929688 1.6875 -12.671875 C 1.675781 -14.410156 2.367188 -15.78125 3.765625 -16.78125 C 5.160156 -17.789062 7.015625 -18.296875 9.328125 -18.296875 C 11.609375 -18.296875 13.40625 -17.8125 14.71875 -16.84375 C 16.039062 -15.882812 16.8125 -14.570312 17.03125 -12.90625 Z M 17.03125 -12.90625 "/></g></g></g><g fill="#000000" fill-opacity="1"><g transform="translate(151.222691, 198.374987)"><g><path d="M 2 0 L 2 -24.078125 L 7 -24.078125 L 7 -11.203125 L 7.28125 -11.203125 L 13.0625 -18.0625 L 18.8125 -18.0625 L 12.109375 -10.234375 L 19.15625 0 L 13.28125 0 L 8.359375 -7.28125 L 7 -5.734375 L 7 0 Z M 2 0 "/></g></g></g><g fill="#000000" fill-opacity="1"><g transform="translate(170.472476, 198.374987)"><g/></g></g><g fill="#000000" fill-opacity="1"><g transform="translate(178.14654, 198.374987)"><g><path d="M 17 -24.078125 L 22.0625 -24.078125 L 22.0625 -8.15625 C 22.0625 -6.34375 21.632812 -4.800781 20.78125 -3.53125 C 19.925781 -2.269531 18.742188 -1.304688 17.234375 -0.640625 C 15.734375 0.015625 14.015625 0.34375 12.078125 0.34375 C 10.128906 0.34375 8.398438 0.015625 6.890625 -0.640625 C 5.390625 -1.304688 4.210938 -2.269531 3.359375 -3.53125 C 2.515625 -4.800781 2.09375 -6.34375 2.09375 -8.15625 L 2.09375 -24.078125 L 7.1875 -24.078125 L 7.1875 -8.34375 C 7.1875 -7.050781 7.648438 -6.035156 8.578125 -5.296875 C 9.503906 -4.566406 10.671875 -4.203125 12.078125 -4.203125 C 13.503906 -4.203125 14.679688 -4.566406 15.609375 -5.296875 C 16.535156 -6.035156 17 -7.050781 17 -8.34375 Z M 17 -24.078125 "/></g></g></g><g fill="#000000" fill-opacity="1"><g transform="translate(202.285172, 198.374987)"><g><path d="M 7 -10.4375 L 7 0 L 2 0 L 2 -18.0625 L 6.765625 -18.0625 L 6.765625 -14.875 L 6.984375 -14.875 C 7.390625 -15.925781 8.0625 -16.757812 9 -17.375 C 9.9375 -17.988281 11.078125 -18.296875 12.421875 -18.296875 C 14.296875 -18.296875 15.800781 -17.6875 16.9375 -16.46875 C 18.070312 -15.257812 18.640625 -13.601562 18.640625 -11.5 L 18.640625 0 L 13.640625 0 L 13.640625 -10.609375 C 13.648438 -11.710938 13.367188 -12.570312 12.796875 -13.1875 C 12.222656 -13.8125 11.429688 -14.125 10.421875 -14.125 C 9.410156 -14.125 8.585938 -13.800781 7.953125 -13.15625 C 7.328125 -12.507812 7.007812 -11.601562 7 -10.4375 Z M 7 -10.4375 "/></g></g></g><g fill="#000000" fill-opacity="1"><g transform="translate(222.86293, 198.374987)"><g><path d="M 2 0 L 2 -18.0625 L 7 -18.0625 L 7 0 Z M 4.515625 -20.390625 C 3.773438 -20.390625 3.132812 -20.632812 2.59375 -21.125 C 2.0625 -21.625 1.796875 -22.222656 1.796875 -22.921875 C 1.796875 -23.617188 2.0625 -24.210938 2.59375 -24.703125 C 3.132812 -25.203125 3.773438 -25.453125 4.515625 -25.453125 C 5.253906 -25.453125 5.890625 -25.203125 6.421875 -24.703125 C 6.953125 -24.210938 7.21875 -23.617188 7.21875 -22.921875 C 7.21875 -22.222656 6.953125 -21.625 6.421875 -21.125 C 5.890625 -20.632812 5.253906 -20.390625 4.515625 -20.390625 Z M 4.515625 -20.390625 "/></g></g></g><g fill="#000000" fill-opacity="1"><g transform="translate(231.864967, 198.374987)"><g><path d="M 18.828125 -18.0625 L 12.515625 0 L 6.875 0 L 0.5625 -18.0625 L 5.859375 -18.0625 L 9.609375 -5.140625 L 9.796875 -5.140625 L 13.53125 -18.0625 Z M 18.828125 -18.0625 "/></g></g></g><g fill="#000000" fill-opacity="1"><g transform="translate(251.255766, 198.374987)"><g><path d="M 10.234375 0.359375 C 8.378906 0.359375 6.78125 -0.0195312 5.4375 -0.78125 C 4.101562 -1.539062 3.070312 -2.613281 2.34375 -4 C 1.625 -5.394531 1.265625 -7.046875 1.265625 -8.953125 C 1.265625 -10.804688 1.625 -12.429688 2.34375 -13.828125 C 3.070312 -15.234375 4.09375 -16.328125 5.40625 -17.109375 C 6.71875 -17.898438 8.257812 -18.296875 10.03125 -18.296875 C 11.625 -18.296875 13.0625 -17.957031 14.34375 -17.28125 C 15.625 -16.601562 16.640625 -15.582031 17.390625 -14.21875 C 18.140625 -12.863281 18.515625 -11.164062 18.515625 -9.125 L 18.515625 -7.75 L 6.21875 -7.75 L 6.21875 -7.734375 C 6.21875 -6.390625 6.585938 -5.328125 7.328125 -4.546875 C 8.066406 -3.773438 9.0625 -3.390625 10.3125 -3.390625 C 11.144531 -3.390625 11.867188 -3.5625 12.484375 -3.90625 C 13.097656 -4.257812 13.53125 -4.785156 13.78125 -5.484375 L 18.40625 -5.171875 C 18.0625 -3.492188 17.171875 -2.148438 15.734375 -1.140625 C 14.296875 -0.140625 12.460938 0.359375 10.234375 0.359375 Z M 6.21875 -10.859375 L 13.796875 -10.859375 C 13.796875 -11.929688 13.453125 -12.816406 12.765625 -13.515625 C 12.085938 -14.210938 11.203125 -14.5625 10.109375 -14.5625 C 8.992188 -14.5625 8.078125 -14.195312 7.359375 -13.46875 C 6.648438 -12.75 6.269531 -11.878906 6.21875 -10.859375 Z M 6.21875 -10.859375 "/></g></g></g><g fill="#000000" fill-opacity="1"><g transform="translate(271.034406, 198.374987)"><g><path d="M 2 0 L 2 -18.0625 L 6.859375 -18.0625 L 6.859375 -14.90625 L 7.046875 -14.90625 C 7.367188 -16.03125 7.914062 -16.878906 8.6875 -17.453125 C 9.46875 -18.023438 10.363281 -18.3125 11.375 -18.3125 C 11.863281 -18.3125 12.316406 -18.253906 12.734375 -18.140625 C 13.148438 -18.023438 13.519531 -17.863281 13.84375 -17.65625 L 12.34375 -13.515625 C 12.113281 -13.640625 11.859375 -13.738281 11.578125 -13.8125 C 11.296875 -13.894531 10.984375 -13.9375 10.640625 -13.9375 C 9.628906 -13.9375 8.769531 -13.59375 8.0625 -12.90625 C 7.363281 -12.21875 7.007812 -11.320312 7 -10.21875 L 7 0 Z M 2 0 "/></g></g></g><g fill="#000000" fill-opacity="1"><g transform="translate(285.219082, 198.374987)"><g><path d="M 17.03125 -12.90625 L 12.4375 -12.625 C 12.3125 -13.207031 11.992188 -13.707031 11.484375 -14.125 C 10.972656 -14.539062 10.285156 -14.75 9.421875 -14.75 C 8.640625 -14.75 7.976562 -14.582031 7.4375 -14.25 C 6.90625 -13.925781 6.644531 -13.492188 6.65625 -12.953125 C 6.644531 -12.523438 6.8125 -12.160156 7.15625 -11.859375 C 7.507812 -11.566406 8.109375 -11.328125 8.953125 -11.140625 L 12.21875 -10.484375 C 15.6875 -9.773438 17.425781 -8.144531 17.4375 -5.59375 C 17.4375 -4.414062 17.085938 -3.378906 16.390625 -2.484375 C 15.703125 -1.585938 14.753906 -0.890625 13.546875 -0.390625 C 12.335938 0.109375 10.953125 0.359375 9.390625 0.359375 C 7.003906 0.359375 5.097656 -0.140625 3.671875 -1.140625 C 2.253906 -2.140625 1.429688 -3.503906 1.203125 -5.234375 L 6.125 -5.484375 C 6.28125 -4.753906 6.640625 -4.195312 7.203125 -3.8125 C 7.773438 -3.4375 8.507812 -3.25 9.40625 -3.25 C 10.28125 -3.25 10.984375 -3.421875 11.515625 -3.765625 C 12.054688 -4.117188 12.332031 -4.5625 12.34375 -5.09375 C 12.320312 -5.988281 11.550781 -6.585938 10.03125 -6.890625 L 6.90625 -7.515625 C 3.40625 -8.210938 1.664062 -9.929688 1.6875 -12.671875 C 1.675781 -14.410156 2.367188 -15.78125 3.765625 -16.78125 C 5.160156 -17.789062 7.015625 -18.296875 9.328125 -18.296875 C 11.609375 -18.296875 13.40625 -17.8125 14.71875 -16.84375 C 16.039062 -15.882812 16.8125 -14.570312 17.03125 -12.90625 Z M 17.03125 -12.90625 "/></g></g></g><g fill="#000000" fill-opacity="1"><g transform="translate(303.810763, 198.374987)"><g><path d="M 2 0 L 2 -18.0625 L 7 -18.0625 L 7 0 Z M 4.515625 -20.390625 C 3.773438 -20.390625 3.132812 -20.632812 2.59375 -21.125 C 2.0625 -21.625 1.796875 -22.222656 1.796875 -22.921875 C 1.796875 -23.617188 2.0625 -24.210938 2.59375 -24.703125 C 3.132812 -25.203125 3.773438 -25.453125 4.515625 -25.453125 C 5.253906 -25.453125 5.890625 -25.203125 6.421875 -24.703125 C 6.953125 -24.210938 7.21875 -23.617188 7.21875 -22.921875 C 7.21875 -22.222656 6.953125 -21.625 6.421875 -21.125 C 5.890625 -20.632812 5.253906 -20.390625 4.515625 -20.390625 Z M 4.515625 -20.390625 "/></g></g></g><g fill="#000000" fill-opacity="1"><g transform="translate(312.8128, 198.374987)"><g><path d="M 11.609375 -18.0625 L 11.609375 -14.296875 L 8.203125 -14.296875 L 8.203125 -5.546875 C 8.203125 -4.859375 8.359375 -4.390625 8.671875 -4.140625 C 8.984375 -3.898438 9.394531 -3.78125 9.90625 -3.78125 C 10.132812 -3.78125 10.363281 -3.800781 10.59375 -3.84375 C 10.832031 -3.894531 11.015625 -3.929688 11.140625 -3.953125 L 11.9375 -0.21875 C 11.6875 -0.144531 11.332031 -0.0546875 10.875 0.046875 C 10.414062 0.160156 9.863281 0.226562 9.21875 0.25 C 7.394531 0.320312 5.929688 -0.0703125 4.828125 -0.9375 C 3.734375 -1.800781 3.191406 -3.117188 3.203125 -4.890625 L 3.203125 -14.296875 L 0.734375 -14.296875 L 0.734375 -18.0625 L 3.203125 -18.0625 L 3.203125 -22.390625 L 8.203125 -22.390625 L 8.203125 -18.0625 Z M 11.609375 -18.0625 "/></g></g></g><g fill="#000000" fill-opacity="1"><g transform="translate(325.669504, 198.374987)"><g><path d="M 10.234375 0.359375 C 8.378906 0.359375 6.78125 -0.0195312 5.4375 -0.78125 C 4.101562 -1.539062 3.070312 -2.613281 2.34375 -4 C 1.625 -5.394531 1.265625 -7.046875 1.265625 -8.953125 C 1.265625 -10.804688 1.625 -12.429688 2.34375 -13.828125 C 3.070312 -15.234375 4.09375 -16.328125 5.40625 -17.109375 C 6.71875 -17.898438 8.257812 -18.296875 10.03125 -18.296875 C 11.625 -18.296875 13.0625 -17.957031 14.34375 -17.28125 C 15.625 -16.601562 16.640625 -15.582031 17.390625 -14.21875 C 18.140625 -12.863281 18.515625 -11.164062 18.515625 -9.125 L 18.515625 -7.75 L 6.21875 -7.75 L 6.21875 -7.734375 C 6.21875 -6.390625 6.585938 -5.328125 7.328125 -4.546875 C 8.066406 -3.773438 9.0625 -3.390625 10.3125 -3.390625 C 11.144531 -3.390625 11.867188 -3.5625 12.484375 -3.90625 C 13.097656 -4.257812 13.53125 -4.785156 13.78125 -5.484375 L 18.40625 -5.171875 C 18.0625 -3.492188 17.171875 -2.148438 15.734375 -1.140625 C 14.296875 -0.140625 12.460938 0.359375 10.234375 0.359375 Z M 6.21875 -10.859375 L 13.796875 -10.859375 C 13.796875 -11.929688 13.453125 -12.816406 12.765625 -13.515625 C 12.085938 -14.210938 11.203125 -14.5625 10.109375 -14.5625 C 8.992188 -14.5625 8.078125 -14.195312 7.359375 -13.46875 C 6.648438 -12.75 6.269531 -11.878906 6.21875 -10.859375 Z M 6.21875 -10.859375 "/></g></g></g><g fill="#000000" fill-opacity="1"><g transform="translate(345.448143, 198.374987)"><g><path d="M 11.609375 -18.0625 L 11.609375 -14.296875 L 8.203125 -14.296875 L 8.203125 -5.546875 C 8.203125 -4.859375 8.359375 -4.390625 8.671875 -4.140625 C 8.984375 -3.898438 9.394531 -3.78125 9.90625 -3.78125 C 10.132812 -3.78125 10.363281 -3.800781 10.59375 -3.84375 C 10.832031 -3.894531 11.015625 -3.929688 11.140625 -3.953125 L 11.9375 -0.21875 C 11.6875 -0.144531 11.332031 -0.0546875 10.875 0.046875 C 10.414062 0.160156 9.863281 0.226562 9.21875 0.25 C 7.394531 0.320312 5.929688 -0.0703125 4.828125 -0.9375 C 3.734375 -1.800781 3.191406 -3.117188 3.203125 -4.890625 L 3.203125 -14.296875 L 0.734375 -14.296875 L 0.734375 -18.0625 L 3.203125 -18.0625 L 3.203125 -22.390625 L 8.203125 -22.390625 L 8.203125 -18.0625 Z M 11.609375 -18.0625 "/></g></g></g></svg>