<svg xmlns="http://www.w3.org/2000/svg" xmlns:xlink="http://www.w3.org/1999/xlink" width="500" zoomAndPan="magnify" viewBox="0 0 375 374.999991" height="500" preserveAspectRatio="xMidYMid meet" version="1.0"><defs><g/></defs><rect x="-37.5" width="450" fill="#ffffff" y="-37.499999" height="449.999989" fill-opacity="1"/><rect x="-37.5" width="450" fill="#ffffff" y="-37.499999" height="449.999989" fill-opacity="1"/><g fill="#000000" fill-opacity="1"><g transform="translate(21.30682, 201.749987)"><g><path d="M 7.8125 -29.171875 L 14.859375 -7 L 15.125 -7 L 22.1875 -29.171875 L 29.03125 -29.171875 L 18.96875 0 L 11.03125 0 L 0.953125 -29.171875 Z M 7.8125 -29.171875 "/></g></g></g><g fill="#000000" fill-opacity="1"><g transform="translate(51.297445, 201.749987)"><g><path d="M 2.421875 0 L 2.421875 -21.875 L 8.296875 -21.875 L 8.296875 -18.0625 L 8.53125 -18.0625 C 8.925781 -19.414062 9.59375 -20.441406 10.53125 -21.140625 C 11.46875 -21.835938 12.550781 -22.1875 13.78125 -22.1875 C 14.375 -22.1875 14.921875 -22.113281 15.421875 -21.96875 C 15.929688 -21.832031 16.382812 -21.640625 16.78125 -21.390625 L 14.953125 -16.375 C 14.671875 -16.519531 14.359375 -16.640625 14.015625 -16.734375 C 13.679688 -16.835938 13.304688 -16.890625 12.890625 -16.890625 C 11.660156 -16.890625 10.617188 -16.472656 9.765625 -15.640625 C 8.921875 -14.804688 8.492188 -13.71875 8.484375 -12.375 L 8.484375 0 Z M 2.421875 0 "/></g></g></g><g fill="#000000" fill-opacity="1"><g transform="translate(68.485806, 201.749987)"><g><path d="M 2.421875 0 L 2.421875 -21.875 L 8.484375 -21.875 L 8.484375 0 Z M 5.46875 -24.703125 C 4.570312 -24.703125 3.800781 -25 3.15625 -25.59375 C 2.507812 -26.195312 2.1875 -26.925781 2.1875 -27.78125 C 2.1875 -28.625 2.507812 -29.34375 3.15625 -29.9375 C 3.800781 -30.539062 4.570312 -30.84375 5.46875 -30.84375 C 6.363281 -30.84375 7.132812 -30.539062 7.78125 -29.9375 C 8.425781 -29.34375 8.75 -28.625 8.75 -27.78125 C 8.75 -26.925781 8.425781 -26.195312 7.78125 -25.59375 C 7.132812 -25 6.363281 -24.703125 5.46875 -24.703125 Z M 5.46875 -24.703125 "/></g></g></g><g fill="#000000" fill-opacity="1"><g transform="translate(79.394073, 201.749987)"><g><path d="M 2.421875 -21.875 L 8.484375 -21.875 L 8.484375 1.015625 C 8.484375 3.546875 7.742188 5.378906 6.265625 6.515625 C 4.785156 7.660156 2.726562 8.203125 0.09375 8.140625 C -0.0625 8.140625 -0.226562 8.132812 -0.40625 8.125 C -0.582031 8.125 -0.789062 8.117188 -1.03125 8.109375 L -1.03125 3.359375 C -0.863281 3.367188 -0.71875 3.375 -0.59375 3.375 C -0.46875 3.382812 -0.347656 3.390625 -0.234375 3.390625 C 0.742188 3.390625 1.429688 3.179688 1.828125 2.765625 C 2.222656 2.359375 2.421875 1.738281 2.421875 0.90625 Z M 5.4375 -24.703125 C 4.539062 -24.703125 3.769531 -25 3.125 -25.59375 C 2.476562 -26.195312 2.15625 -26.925781 2.15625 -27.78125 C 2.15625 -28.625 2.476562 -29.34375 3.125 -29.9375 C 3.769531 -30.539062 4.539062 -30.84375 5.4375 -30.84375 C 6.332031 -30.84375 7.101562 -30.539062 7.75 -29.9375 C 8.394531 -29.34375 8.71875 -28.625 8.71875 -27.78125 C 8.71875 -26.925781 8.394531 -26.195312 7.75 -25.59375 C 7.101562 -25 6.332031 -24.703125 5.4375 -24.703125 Z M 5.4375 -24.703125 "/></g></g></g><g fill="#000000" fill-opacity="1"><g transform="translate(90.302341, 201.749987)"><g><path d="M 12.390625 0.421875 C 10.148438 0.421875 8.21875 -0.0351562 6.59375 -0.953125 C 4.96875 -1.867188 3.71875 -3.164062 2.84375 -4.84375 C 1.96875 -6.53125 1.53125 -8.53125 1.53125 -10.84375 C 1.53125 -13.09375 1.96875 -15.066406 2.84375 -16.765625 C 3.71875 -18.460938 4.953125 -19.785156 6.546875 -20.734375 C 8.140625 -21.679688 10.007812 -22.15625 12.15625 -22.15625 C 14.082031 -22.15625 15.820312 -21.75 17.375 -20.9375 C 18.925781 -20.125 20.15625 -18.890625 21.0625 -17.234375 C 21.976562 -15.585938 22.4375 -13.523438 22.4375 -11.046875 L 22.4375 -9.390625 L 7.53125 -9.390625 L 7.53125 -9.375 C 7.53125 -7.738281 7.976562 -6.453125 8.875 -5.515625 C 9.769531 -4.578125 10.972656 -4.109375 12.484375 -4.109375 C 13.503906 -4.109375 14.382812 -4.320312 15.125 -4.75 C 15.863281 -5.175781 16.382812 -5.804688 16.6875 -6.640625 L 22.3125 -6.265625 C 21.882812 -4.234375 20.800781 -2.609375 19.0625 -1.390625 C 17.320312 -0.179688 15.097656 0.421875 12.390625 0.421875 Z M 7.53125 -13.140625 L 16.71875 -13.140625 C 16.707031 -14.441406 16.289062 -15.515625 15.46875 -16.359375 C 14.644531 -17.210938 13.570312 -17.640625 12.25 -17.640625 C 10.90625 -17.640625 9.800781 -17.203125 8.9375 -16.328125 C 8.070312 -15.453125 7.601562 -14.390625 7.53125 -13.140625 Z M 7.53125 -13.140625 "/></g></g></g><g fill="#000000" fill-opacity="1"><g transform="translate(114.269209, 201.749987)"><g/></g></g><g fill="#000000" fill-opacity="1"><g transform="translate(123.568299, 201.749987)"><g><path d="M 20.59375 -29.171875 L 26.71875 -29.171875 L 26.71875 -9.890625 C 26.71875 -7.679688 26.195312 -5.8125 25.15625 -4.28125 C 24.125 -2.75 22.695312 -1.582031 20.875 -0.78125 C 19.0625 0.0078125 16.976562 0.40625 14.625 0.40625 C 12.269531 0.40625 10.179688 0.0078125 8.359375 -0.78125 C 6.535156 -1.582031 5.109375 -2.75 4.078125 -4.28125 C 3.046875 -5.8125 2.53125 -7.679688 2.53125 -9.890625 L 2.53125 -29.171875 L 8.703125 -29.171875 L 8.703125 -10.09375 C 8.703125 -8.539062 9.265625 -7.316406 10.390625 -6.421875 C 11.515625 -5.523438 12.925781 -5.078125 14.625 -5.078125 C 16.351562 -5.078125 17.78125 -5.523438 18.90625 -6.421875 C 20.03125 -7.316406 20.59375 -8.539062 20.59375 -10.09375 Z M 20.59375 -29.171875 "/></g></g></g><g fill="#000000" fill-opacity="1"><g transform="translate(152.818412, 201.749987)"><g><path d="M 8.484375 -12.640625 L 8.484375 0 L 2.421875 0 L 2.421875 -21.875 L 8.203125 -21.875 L 8.203125 -18.015625 L 8.453125 -18.015625 C 8.953125 -19.285156 9.769531 -20.289062 10.90625 -21.03125 C 12.039062 -21.78125 13.421875 -22.15625 15.046875 -22.15625 C 17.316406 -22.15625 19.140625 -21.421875 20.515625 -19.953125 C 21.898438 -18.492188 22.59375 -16.488281 22.59375 -13.9375 L 22.59375 0 L 16.515625 0 L 16.515625 -12.84375 C 16.523438 -14.1875 16.179688 -15.234375 15.484375 -15.984375 C 14.796875 -16.742188 13.847656 -17.125 12.640625 -17.125 C 11.410156 -17.125 10.410156 -16.726562 9.640625 -15.9375 C 8.878906 -15.15625 8.492188 -14.054688 8.484375 -12.640625 Z M 8.484375 -12.640625 "/></g></g></g><g fill="#000000" fill-opacity="1"><g transform="translate(177.753634, 201.749987)"><g><path d="M 2.421875 0 L 2.421875 -21.875 L 8.484375 -21.875 L 8.484375 0 Z M 5.46875 -24.703125 C 4.570312 -24.703125 3.800781 -25 3.15625 -25.59375 C 2.507812 -26.195312 2.1875 -26.925781 2.1875 -27.78125 C 2.1875 -28.625 2.507812 -29.34375 3.15625 -29.9375 C 3.800781 -30.539062 4.570312 -30.84375 5.46875 -30.84375 C 6.363281 -30.84375 7.132812 -30.539062 7.78125 -29.9375 C 8.425781 -29.34375 8.75 -28.625 8.75 -27.78125 C 8.75 -26.925781 8.425781 -26.195312 7.78125 -25.59375 C 7.132812 -25 6.363281 -24.703125 5.46875 -24.703125 Z M 5.46875 -24.703125 "/></g></g></g><g fill="#000000" fill-opacity="1"><g transform="translate(188.661901, 201.749987)"><g><path d="M 22.8125 -21.875 L 15.171875 0 L 8.328125 0 L 0.6875 -21.875 L 7.09375 -21.875 L 11.640625 -6.21875 L 11.859375 -6.21875 L 16.390625 -21.875 Z M 22.8125 -21.875 "/></g></g></g><g fill="#000000" fill-opacity="1"><g transform="translate(212.158829, 201.749987)"><g><path d="M 12.390625 0.421875 C 10.148438 0.421875 8.21875 -0.0351562 6.59375 -0.953125 C 4.96875 -1.867188 3.71875 -3.164062 2.84375 -4.84375 C 1.96875 -6.53125 1.53125 -8.53125 1.53125 -10.84375 C 1.53125 -13.09375 1.96875 -15.066406 2.84375 -16.765625 C 3.71875 -18.460938 4.953125 -19.785156 6.546875 -20.734375 C 8.140625 -21.679688 10.007812 -22.15625 12.15625 -22.15625 C 14.082031 -22.15625 15.820312 -21.75 17.375 -20.9375 C 18.925781 -20.125 20.15625 -18.890625 21.0625 -17.234375 C 21.976562 -15.585938 22.4375 -13.523438 22.4375 -11.046875 L 22.4375 -9.390625 L 7.53125 -9.390625 L 7.53125 -9.375 C 7.53125 -7.738281 7.976562 -6.453125 8.875 -5.515625 C 9.769531 -4.578125 10.972656 -4.109375 12.484375 -4.109375 C 13.503906 -4.109375 14.382812 -4.320312 15.125 -4.75 C 15.863281 -5.175781 16.382812 -5.804688 16.6875 -6.640625 L 22.3125 -6.265625 C 21.882812 -4.234375 20.800781 -2.609375 19.0625 -1.390625 C 17.320312 -0.179688 15.097656 0.421875 12.390625 0.421875 Z M 7.53125 -13.140625 L 16.71875 -13.140625 C 16.707031 -14.441406 16.289062 -15.515625 15.46875 -16.359375 C 14.644531 -17.210938 13.570312 -17.640625 12.25 -17.640625 C 10.90625 -17.640625 9.800781 -17.203125 8.9375 -16.328125 C 8.070312 -15.453125 7.601562 -14.390625 7.53125 -13.140625 Z M 7.53125 -13.140625 "/></g></g></g><g fill="#000000" fill-opacity="1"><g transform="translate(236.125685, 201.749987)"><g><path d="M 2.421875 0 L 2.421875 -21.875 L 8.296875 -21.875 L 8.296875 -18.0625 L 8.53125 -18.0625 C 8.925781 -19.414062 9.59375 -20.441406 10.53125 -21.140625 C 11.46875 -21.835938 12.550781 -22.1875 13.78125 -22.1875 C 14.375 -22.1875 14.921875 -22.113281 15.421875 -21.96875 C 15.929688 -21.832031 16.382812 -21.640625 16.78125 -21.390625 L 14.953125 -16.375 C 14.671875 -16.519531 14.359375 -16.640625 14.015625 -16.734375 C 13.679688 -16.835938 13.304688 -16.890625 12.890625 -16.890625 C 11.660156 -16.890625 10.617188 -16.472656 9.765625 -15.640625 C 8.921875 -14.804688 8.492188 -13.71875 8.484375 -12.375 L 8.484375 0 Z M 2.421875 0 "/></g></g></g><g fill="#000000" fill-opacity="1"><g transform="translate(253.314046, 201.749987)"><g><path d="M 20.625 -15.640625 L 15.0625 -15.296875 C 14.914062 -15.992188 14.53125 -16.59375 13.90625 -17.09375 C 13.289062 -17.601562 12.457031 -17.859375 11.40625 -17.859375 C 10.46875 -17.859375 9.671875 -17.660156 9.015625 -17.265625 C 8.367188 -16.867188 8.050781 -16.347656 8.0625 -15.703125 C 8.050781 -15.171875 8.253906 -14.722656 8.671875 -14.359375 C 9.097656 -14.003906 9.820312 -13.71875 10.84375 -13.5 L 14.796875 -12.703125 C 19.003906 -11.835938 21.113281 -9.863281 21.125 -6.78125 C 21.125 -5.34375 20.703125 -4.082031 19.859375 -3 C 19.023438 -1.914062 17.875 -1.070312 16.40625 -0.46875 C 14.945312 0.125 13.269531 0.421875 11.375 0.421875 C 8.476562 0.421875 6.171875 -0.179688 4.453125 -1.390625 C 2.734375 -2.597656 1.734375 -4.25 1.453125 -6.34375 L 7.421875 -6.65625 C 7.609375 -5.757812 8.046875 -5.082031 8.734375 -4.625 C 9.421875 -4.175781 10.304688 -3.953125 11.390625 -3.953125 C 12.453125 -3.953125 13.304688 -4.160156 13.953125 -4.578125 C 14.609375 -4.992188 14.941406 -5.523438 14.953125 -6.171875 C 14.921875 -7.253906 13.988281 -7.976562 12.15625 -8.34375 L 8.359375 -9.09375 C 4.128906 -9.945312 2.019531 -12.035156 2.03125 -15.359375 C 2.019531 -17.460938 2.863281 -19.117188 4.5625 -20.328125 C 6.257812 -21.546875 8.507812 -22.15625 11.3125 -22.15625 C 14.070312 -22.15625 16.242188 -21.570312 17.828125 -20.40625 C 19.421875 -19.238281 20.351562 -17.648438 20.625 -15.640625 Z M 20.625 -15.640625 "/></g></g></g><g fill="#000000" fill-opacity="1"><g transform="translate(275.842632, 201.749987)"><g><path d="M 2.421875 0 L 2.421875 -21.875 L 8.484375 -21.875 L 8.484375 0 Z M 5.46875 -24.703125 C 4.570312 -24.703125 3.800781 -25 3.15625 -25.59375 C 2.507812 -26.195312 2.1875 -26.925781 2.1875 -27.78125 C 2.1875 -28.625 2.507812 -29.34375 3.15625 -29.9375 C 3.800781 -30.539062 4.570312 -30.84375 5.46875 -30.84375 C 6.363281 -30.84375 7.132812 -30.539062 7.78125 -29.9375 C 8.425781 -29.34375 8.75 -28.625 8.75 -27.78125 C 8.75 -26.925781 8.425781 -26.195312 7.78125 -25.59375 C 7.132812 -25 6.363281 -24.703125 5.46875 -24.703125 Z M 5.46875 -24.703125 "/></g></g></g><g fill="#000000" fill-opacity="1"><g transform="translate(286.75091, 201.749987)"><g><path d="M 14.0625 -21.875 L 14.0625 -17.3125 L 9.9375 -17.3125 L 9.9375 -6.71875 C 9.9375 -5.882812 10.125 -5.320312 10.5 -5.03125 C 10.882812 -4.738281 11.382812 -4.59375 12 -4.59375 C 12.28125 -4.59375 12.5625 -4.617188 12.84375 -4.671875 C 13.132812 -4.722656 13.351562 -4.757812 13.5 -4.78125 L 14.453125 -0.265625 C 14.148438 -0.171875 13.722656 -0.0625 13.171875 0.0625 C 12.617188 0.1875 11.953125 0.265625 11.171875 0.296875 C 8.960938 0.390625 7.191406 -0.0820312 5.859375 -1.125 C 4.523438 -2.175781 3.863281 -3.773438 3.875 -5.921875 L 3.875 -17.3125 L 0.890625 -17.3125 L 0.890625 -21.875 L 3.875 -21.875 L 3.875 -27.125 L 9.9375 -27.125 L 9.9375 -21.875 Z M 14.0625 -21.875 "/></g></g></g><g fill="#000000" fill-opacity="1"><g transform="translate(302.330072, 201.749987)"><g><path d="M 12.390625 0.421875 C 10.148438 0.421875 8.21875 -0.0351562 6.59375 -0.953125 C 4.96875 -1.867188 3.71875 -3.164062 2.84375 -4.84375 C 1.96875 -6.53125 1.53125 -8.53125 1.53125 -10.84375 C 1.53125 -13.09375 1.96875 -15.066406 2.84375 -16.765625 C 3.71875 -18.460938 4.953125 -19.785156 6.546875 -20.734375 C 8.140625 -21.679688 10.007812 -22.15625 12.15625 -22.15625 C 14.082031 -22.15625 15.820312 -21.75 17.375 -20.9375 C 18.925781 -20.125 20.15625 -18.890625 21.0625 -17.234375 C 21.976562 -15.585938 22.4375 -13.523438 22.4375 -11.046875 L 22.4375 -9.390625 L 7.53125 -9.390625 L 7.53125 -9.375 C 7.53125 -7.738281 7.976562 -6.453125 8.875 -5.515625 C 9.769531 -4.578125 10.972656 -4.109375 12.484375 -4.109375 C 13.503906 -4.109375 14.382812 -4.320312 15.125 -4.75 C 15.863281 -5.175781 16.382812 -5.804688 16.6875 -6.640625 L 22.3125 -6.265625 C 21.882812 -4.234375 20.800781 -2.609375 19.0625 -1.390625 C 17.320312 -0.179688 15.097656 0.421875 12.390625 0.421875 Z M 7.53125 -13.140625 L 16.71875 -13.140625 C 16.707031 -14.441406 16.289062 -15.515625 15.46875 -16.359375 C 14.644531 -17.210938 13.570312 -17.640625 12.25 -17.640625 C 10.90625 -17.640625 9.800781 -17.203125 8.9375 -16.328125 C 8.070312 -15.453125 7.601562 -14.390625 7.53125 -13.140625 Z M 7.53125 -13.140625 "/></g></g></g><g fill="#000000" fill-opacity="1"><g transform="translate(326.296929, 201.749987)"><g><path d="M 2.421875 0 L 2.421875 -21.875 L 8.484375 -21.875 L 8.484375 0 Z M 5.46875 -24.703125 C 4.570312 -24.703125 3.800781 -25 3.15625 -25.59375 C 2.507812 -26.195312 2.1875 -26.925781 2.1875 -27.78125 C 2.1875 -28.625 2.507812 -29.34375 3.15625 -29.9375 C 3.800781 -30.539062 4.570312 -30.84375 5.46875 -30.84375 C 6.363281 -30.84375 7.132812 -30.539062 7.78125 -29.9375 C 8.425781 -29.34375 8.75 -28.625 8.75 -27.78125 C 8.75 -26.925781 8.425781 -26.195312 7.78125 -25.59375 C 7.132812 -25 6.363281 -24.703125 5.46875 -24.703125 Z M 5.46875 -24.703125 "/></g></g></g><g fill="#000000" fill-opacity="1"><g transform="translate(337.205208, 201.749987)"><g><path d="M 14.0625 -21.875 L 14.0625 -17.3125 L 9.9375 -17.3125 L 9.9375 -6.71875 C 9.9375 -5.882812 10.125 -5.320312 10.5 -5.03125 C 10.882812 -4.738281 11.382812 -4.59375 12 -4.59375 C 12.28125 -4.59375 12.5625 -4.617188 12.84375 -4.671875 C 13.132812 -4.722656 13.351562 -4.757812 13.5 -4.78125 L 14.453125 -0.265625 C 14.148438 -0.171875 13.722656 -0.0625 13.171875 0.0625 C 12.617188 0.1875 11.953125 0.265625 11.171875 0.296875 C 8.960938 0.390625 7.191406 -0.0820312 5.859375 -1.125 C 4.523438 -2.175781 3.863281 -3.773438 3.875 -5.921875 L 3.875 -17.3125 L 0.890625 -17.3125 L 0.890625 -21.875 L 3.875 -21.875 L 3.875 -27.125 L 9.9375 -27.125 L 9.9375 -21.875 Z M 14.0625 -21.875 "/></g></g></g></svg>